<svg viewBox="0 0 205 31" fill="none" xmlns="http://www.w3.org/2000/svg">
    <path
        d="M8.608 29.384C7.38133 29.384 6.23467 29.0533 5.168 28.392C4.112 27.7307 3.25867 26.7973 2.608 25.592C1.95733 24.3867 1.632 22.9627 1.632 21.32C1.632 19.6347 1.95733 18.1947 2.608 17C3.25867 15.8053 4.112 14.8933 5.168 14.264C6.23467 13.6347 7.38133 13.32 8.608 13.32C9.76 13.32 10.752 13.5493 11.584 14.008C12.4267 14.456 13.1093 15.0533 13.632 15.8C14.1653 16.536 14.5387 17.3307 14.752 18.184L12.192 18.408C11.9253 17.5227 11.4773 16.824 10.848 16.312C10.2293 15.7893 9.472 15.528 8.576 15.528C7.81867 15.528 7.104 15.7467 6.432 16.184C5.77067 16.6107 5.232 17.256 4.816 18.12C4.4 18.9733 4.192 20.04 4.192 21.32C4.192 23.0907 4.608 24.504 5.44 25.56C6.272 26.616 7.31733 27.144 8.576 27.144C9.76 27.144 10.656 26.856 11.264 26.28C11.8827 25.6933 12.192 24.8827 12.192 23.848H14.752C14.752 24.9147 14.5013 25.864 14 26.696C13.4987 27.528 12.784 28.184 11.856 28.664C10.9387 29.144 9.856 29.384 8.608 29.384ZM19.732 29V7.176H22.228V16.6C23.252 14.4133 24.948 13.32 27.316 13.32C29.1293 13.32 30.5427 13.9173 31.556 15.112C32.5693 16.3067 33.076 17.9387 33.076 20.008V29H30.612V20.008C30.612 18.5467 30.26 17.4373 29.556 16.68C28.8627 15.912 27.9133 15.528 26.708 15.528C25.332 15.528 24.2387 16.0827 23.428 17.192C22.628 18.3013 22.228 19.8267 22.228 21.768V29H19.732ZM43.3005 29.384C42.0418 29.384 41.0018 29.16 40.1805 28.712C39.3592 28.264 38.7458 27.6827 38.3405 26.968C37.9352 26.2533 37.7325 25.5013 37.7325 24.712C37.7325 23.6773 37.9885 22.8347 38.5005 22.184C39.0232 21.5333 39.7325 21.0587 40.6285 20.76C41.5245 20.4507 42.5325 20.296 43.6525 20.296C44.4098 20.296 45.1725 20.3707 45.9405 20.52C46.7085 20.6693 47.4605 20.8667 48.1965 21.112V19.08C48.1965 17.704 47.9032 16.7173 47.3165 16.12C46.7298 15.512 45.8498 15.208 44.6765 15.208C43.6845 15.208 42.8418 15.4267 42.1485 15.864C41.4658 16.2907 41.1245 16.9787 41.1245 17.928H38.3405C38.3405 16.8187 38.6125 15.928 39.1565 15.256C39.7005 14.5733 40.4472 14.0827 41.3965 13.784C42.3565 13.4747 43.4498 13.32 44.6765 13.32C46.4365 13.32 47.8765 13.7733 48.9965 14.68C50.1272 15.5867 50.6925 17.0747 50.6925 19.144V29H48.5165L48.2605 26.248C47.8445 27.1653 47.2098 27.9173 46.3565 28.504C45.5138 29.0907 44.4952 29.384 43.3005 29.384ZM40.3885 24.712C40.3885 25.4587 40.6552 26.0987 41.1885 26.632C41.7325 27.1653 42.5965 27.432 43.7805 27.432C44.6125 27.432 45.3592 27.24 46.0205 26.856C46.6925 26.4613 47.2205 25.9707 47.6045 25.384C47.9992 24.7973 48.1965 24.2107 48.1965 23.624V22.68C47.5672 22.4453 46.8738 22.264 46.1165 22.136C45.3592 21.9973 44.6658 21.928 44.0365 21.928C43.0125 21.928 42.1485 22.1413 41.4445 22.568C40.7405 22.984 40.3885 23.6987 40.3885 24.712ZM62.1735 29.384C59.9548 29.384 58.2802 28.9253 57.1495 28.008C56.0295 27.08 55.4428 25.896 55.3895 24.456H57.7895C57.8428 25.4267 58.2322 26.1573 58.9575 26.648C59.6935 27.128 60.6908 27.368 61.9495 27.368C62.9415 27.368 63.7948 27.1333 64.5095 26.664C65.2348 26.1947 65.5975 25.608 65.5975 24.904C65.5975 24.3067 65.3788 23.8373 64.9415 23.496C64.5042 23.1547 63.8055 22.856 62.8455 22.6L59.8695 21.64C58.5788 21.2347 57.5868 20.68 56.8935 19.976C56.2108 19.2613 55.8695 18.408 55.8695 17.416C55.8695 16.1787 56.4135 15.1867 57.5015 14.44C58.5895 13.6933 60.0188 13.32 61.7895 13.32C63.6668 13.32 65.1228 13.704 66.1575 14.472C67.1922 15.24 67.7308 16.2 67.7735 17.352H65.3095C65.1175 15.9867 63.9442 15.304 61.7895 15.304C60.7548 15.304 59.9442 15.5387 59.3575 16.008C58.7815 16.4667 58.4935 16.9787 58.4935 17.544C58.4935 18.6 59.4002 19.3787 61.2135 19.88L64.2535 20.904C65.5655 21.2987 66.5682 21.816 67.2615 22.456C67.9655 23.096 68.3175 23.912 68.3175 24.904C68.3175 25.672 68.0668 26.3973 67.5655 27.08C67.0642 27.7627 66.3548 28.3173 65.4375 28.744C64.5202 29.1707 63.4322 29.384 62.1735 29.384ZM78.794 29.384C77.4713 29.384 76.2873 29.048 75.242 28.376C74.2073 27.6933 73.386 26.7493 72.778 25.544C72.1807 24.3387 71.882 22.952 71.882 21.384C71.882 19.7093 72.1807 18.2693 72.778 17.064C73.3753 15.8587 74.1913 14.936 75.226 14.296C76.2713 13.6453 77.4607 13.32 78.794 13.32C80.3407 13.32 81.5887 13.7253 82.538 14.536C83.4873 15.336 84.1593 16.3813 84.554 17.672C84.9487 18.9627 85.0873 20.328 84.97 21.768H74.378C74.3887 23.368 74.7567 24.696 75.482 25.752C76.2073 26.808 77.3113 27.336 78.794 27.336C79.786 27.336 80.602 27.096 81.242 26.616C81.882 26.136 82.2713 25.4267 82.41 24.488H85.002C84.7673 26.0027 84.0847 27.1973 82.954 28.072C81.834 28.9467 80.4473 29.384 78.794 29.384ZM78.826 15.336C77.898 15.336 77.114 15.56 76.474 16.008C75.834 16.456 75.338 17.0533 74.986 17.8C74.6447 18.536 74.4473 19.3467 74.394 20.232H82.602C82.602 19.4427 82.49 18.6747 82.266 17.928C82.042 17.1813 81.6527 16.5627 81.098 16.072C80.554 15.5813 79.7967 15.336 78.826 15.336ZM97.5133 29V13.704H99.6573L99.9453 16.776C100.425 15.6667 101.097 14.8133 101.961 14.216C102.836 13.6187 103.881 13.32 105.097 13.32C106.42 13.32 107.535 13.6453 108.441 14.296C109.348 14.9467 110.004 15.864 110.409 17.048C111.348 14.5627 113.129 13.32 115.753 13.32C117.567 13.32 118.98 13.9173 119.993 15.112C121.007 16.3067 121.513 17.9387 121.513 20.008V29H119.017V20.008C119.017 18.5467 118.665 17.4373 117.961 16.68C117.268 15.912 116.329 15.528 115.145 15.528C113.759 15.528 112.697 16.0667 111.961 17.144C111.225 18.2107 110.857 19.688 110.857 21.576V29H108.393V20.008C108.393 18.5467 108.041 17.4373 107.337 16.68C106.644 15.912 105.695 15.528 104.489 15.528C103.113 15.528 102.02 16.0827 101.209 17.192C100.409 18.3013 100.009 19.8267 100.009 21.768V29H97.5133ZM149.327 29.384C148.1 29.384 146.953 29.0533 145.887 28.392C144.831 27.7307 143.977 26.7973 143.327 25.592C142.676 24.3867 142.351 22.9627 142.351 21.32C142.351 19.6347 142.676 18.1947 143.327 17C143.977 15.8053 144.831 14.8933 145.887 14.264C146.953 13.6347 148.1 13.32 149.327 13.32C150.479 13.32 151.471 13.5493 152.303 14.008C153.145 14.456 153.828 15.0533 154.351 15.8C154.884 16.536 155.257 17.3307 155.471 18.184L152.911 18.408C152.644 17.5227 152.196 16.824 151.567 16.312C150.948 15.7893 150.191 15.528 149.295 15.528C148.537 15.528 147.823 15.7467 147.151 16.184C146.489 16.6107 145.951 17.256 145.535 18.12C145.119 18.9733 144.911 20.04 144.911 21.32C144.911 23.0907 145.327 24.504 146.159 25.56C146.991 26.616 148.036 27.144 149.295 27.144C150.479 27.144 151.375 26.856 151.983 26.28C152.601 25.6933 152.911 24.8827 152.911 23.848H155.471C155.471 24.9147 155.22 25.864 154.719 26.696C154.217 27.528 153.503 28.184 152.575 28.664C151.657 29.144 150.575 29.384 149.327 29.384ZM164.707 29.384C163.448 29.384 162.408 29.16 161.587 28.712C160.765 28.264 160.152 27.6827 159.747 26.968C159.341 26.2533 159.139 25.5013 159.139 24.712C159.139 23.6773 159.395 22.8347 159.907 22.184C160.429 21.5333 161.139 21.0587 162.035 20.76C162.931 20.4507 163.939 20.296 165.059 20.296C165.816 20.296 166.579 20.3707 167.347 20.52C168.115 20.6693 168.867 20.8667 169.603 21.112V19.08C169.603 17.704 169.309 16.7173 168.723 16.12C168.136 15.512 167.256 15.208 166.083 15.208C165.091 15.208 164.248 15.4267 163.555 15.864C162.872 16.2907 162.531 16.9787 162.531 17.928H159.747C159.747 16.8187 160.019 15.928 160.563 15.256C161.107 14.5733 161.853 14.0827 162.803 13.784C163.763 13.4747 164.856 13.32 166.083 13.32C167.843 13.32 169.283 13.7733 170.403 14.68C171.533 15.5867 172.099 17.0747 172.099 19.144V29H169.923L169.667 26.248C169.251 27.1653 168.616 27.9173 167.763 28.504C166.92 29.0907 165.901 29.384 164.707 29.384ZM161.795 24.712C161.795 25.4587 162.061 26.0987 162.595 26.632C163.139 27.1653 164.003 27.432 165.187 27.432C166.019 27.432 166.765 27.24 167.427 26.856C168.099 26.4613 168.627 25.9707 169.011 25.384C169.405 24.7973 169.603 24.2107 169.603 23.624V22.68C168.973 22.4453 168.28 22.264 167.523 22.136C166.765 21.9973 166.072 21.928 165.443 21.928C164.419 21.928 163.555 22.1413 162.851 22.568C162.147 22.984 161.795 23.6987 161.795 24.712ZM179.484 10.088C178.972 10.088 178.566 9.944 178.268 9.656C177.969 9.35733 177.82 8.968 177.82 8.488C177.82 8.01867 177.969 7.64533 178.268 7.368C178.566 7.09067 178.972 6.952 179.484 6.952C179.996 6.952 180.401 7.09067 180.7 7.368C180.998 7.64533 181.148 8.01867 181.148 8.488C181.148 8.968 180.998 9.35733 180.7 9.656C180.401 9.944 179.996 10.088 179.484 10.088ZM178.236 29V13.672H180.732V29H178.236ZM187.607 29V13.704H189.751L190.055 16.712C190.546 15.6133 191.223 14.776 192.087 14.2C192.951 13.6133 193.986 13.32 195.191 13.32C197.004 13.32 198.418 13.9173 199.431 15.112C200.444 16.3067 200.951 17.9387 200.951 20.008V29H198.487V20.008C198.487 18.5467 198.135 17.4373 197.431 16.68C196.738 15.912 195.788 15.528 194.583 15.528C193.207 15.528 192.114 16.0827 191.303 17.192C190.503 18.3013 190.103 19.8267 190.103 21.768V29H187.607Z"
        fill="black" />
    <path
        d="M132.45 24.26C131.663 24.26 130.93 24.0533 130.25 23.64C129.57 23.22 129.023 22.63 128.61 21.87C128.197 21.1033 127.99 20.2067 127.99 19.18C127.99 18.1067 128.197 17.1933 128.61 16.44C129.023 15.6867 129.57 15.1133 130.25 14.72C130.93 14.32 131.663 14.12 132.45 14.12C133.223 14.12 133.883 14.2767 134.43 14.59C134.977 14.9033 135.413 15.31 135.74 15.81C136.067 16.3033 136.283 16.8267 136.39 17.38L134.46 17.48C134.313 16.9867 134.067 16.5867 133.72 16.28C133.373 15.9733 132.943 15.82 132.43 15.82C131.997 15.82 131.587 15.9433 131.2 16.19C130.82 16.43 130.51 16.8 130.27 17.3C130.037 17.7933 129.92 18.42 129.92 19.18C129.92 20.24 130.16 21.0667 130.64 21.66C131.12 22.2467 131.717 22.54 132.43 22.54C133.11 22.54 133.617 22.3767 133.95 22.05C134.29 21.7167 134.46 21.26 134.46 20.68H136.39C136.39 21.3533 136.233 21.96 135.92 22.5C135.607 23.04 135.153 23.47 134.56 23.79C133.973 24.1033 133.27 24.26 132.45 24.26Z"
        fill="#242424" />
    <circle cx="132.5" cy="29" r="2" fill="#EAA300" />
</svg>