<svg viewBox="0 0 205 31" fill="none" xmlns="http://www.w3.org/2000/svg">
    <path
        d="M8.32 13.32C10.1333 13.32 11.5733 13.7893 12.64 14.728C13.7067 15.6453 14.4 16.7973 14.72 18.184L12.16 18.408C11.8827 17.512 11.4347 16.8187 10.816 16.328C10.1973 15.816 9.51467 15.56 8.768 15.56C7.40267 15.56 6.29333 16.072 5.44 17.096C4.608 18.12 4.192 19.5173 4.192 21.288C4.192 23.0373 4.59733 24.4453 5.408 25.512C6.24 26.5787 7.264 27.112 8.48 27.112C9.71733 27.112 10.6347 26.8347 11.232 26.28C11.8507 25.704 12.16 24.8933 12.16 23.848H14.752C14.752 25.4907 14.176 26.824 13.024 27.848C11.8933 28.8507 10.4107 29.352 8.576 29.352C6.63467 29.352 4.98133 28.616 3.616 27.144C2.272 25.672 1.6 23.72 1.6 21.288C1.6 18.8347 2.272 16.8933 3.616 15.464C4.96 14.0347 6.528 13.32 8.32 13.32ZM22.2288 16.52C23.2528 14.3867 24.9488 13.32 27.3168 13.32C29.1301 13.32 30.5381 13.9173 31.5408 15.112C32.5648 16.3067 33.0768 17.9387 33.0768 20.008V29H30.5808V20.008C30.5808 18.536 30.2288 17.4267 29.5248 16.68C28.8421 15.9333 27.8501 15.56 26.5488 15.56C25.2474 15.56 24.2021 16.1147 23.4128 17.224C22.6234 18.312 22.2288 19.8267 22.2288 21.768V29H19.7008V7.208H22.2288V16.52ZM48.4853 19.08C48.4853 17.6933 48.1973 16.7013 47.6213 16.104C47.0453 15.5067 46.2026 15.208 45.0933 15.208C44.0053 15.208 43.1199 15.432 42.4373 15.88C41.7759 16.3067 41.4453 16.9893 41.4453 17.928H38.6613C38.6613 15.5813 39.9199 14.1307 42.4373 13.576C43.2053 13.4053 44.0373 13.32 44.9333 13.32C46.8319 13.32 48.3146 13.8 49.3813 14.76C50.4479 15.72 50.9813 17.1813 50.9813 19.144V29H48.8053L48.5493 26.44C47.6106 28.3813 45.9146 29.352 43.4613 29.352C41.8186 29.352 40.4959 28.8933 39.4933 27.976C38.5119 27.0587 38.0213 25.9173 38.0213 24.552C38.0213 23.1867 38.5653 22.12 39.6533 21.352C40.7626 20.584 42.1386 20.2 43.7812 20.2C45.4239 20.2 46.9919 20.4773 48.4853 21.032V19.08ZM48.4853 22.632C46.9706 22.2053 45.6479 21.992 44.5173 21.992C43.3866 21.992 42.4693 22.1947 41.7653 22.6C41.0613 23.0053 40.7093 23.6453 40.7093 24.52C40.7093 26.44 41.7973 27.4 43.9733 27.4C45.2106 27.4 46.2666 26.9627 47.1413 26.088C48.0373 25.192 48.4853 24.04 48.4853 22.632ZM56.1195 17.448C56.1195 16.1893 56.6528 15.1867 57.7195 14.44C58.8075 13.6933 60.2688 13.32 62.1035 13.32C63.9382 13.32 65.3675 13.704 66.3915 14.472C67.4368 15.24 67.9808 16.2107 68.0235 17.384H65.5595C65.3675 15.9973 64.1942 15.304 62.0395 15.304C60.9942 15.304 60.1835 15.5387 59.6075 16.008C59.0528 16.4773 58.7755 16.9893 58.7755 17.544C58.7755 18.0773 58.9888 18.536 59.4155 18.92C59.8422 19.2827 60.5248 19.6027 61.4635 19.88L64.5355 20.904C65.8368 21.3093 66.8288 21.832 67.5115 22.472C68.2155 23.0907 68.5675 23.9547 68.5675 25.064C68.5675 26.152 68.0022 27.144 66.8715 28.04C65.7408 28.9147 64.1622 29.352 62.1355 29.352C60.1088 29.352 58.5302 28.904 57.3995 28.008C56.2688 27.0907 55.6715 25.9173 55.6075 24.488H58.0395C58.0822 25.448 58.4662 26.1733 59.1915 26.664C59.9382 27.1333 60.8662 27.368 61.9755 27.368C63.0848 27.368 64.0022 27.1333 64.7275 26.664C65.4528 26.1947 65.8155 25.64 65.8155 25C65.8155 24.3387 65.6022 23.8373 65.1755 23.496C64.7488 23.1547 64.0555 22.856 63.0955 22.6L60.1195 21.608C57.4528 20.8187 56.1195 19.432 56.1195 17.448ZM79.0433 27.304C81.1553 27.304 82.3606 26.376 82.6593 24.52H85.2513C85.0166 26.056 84.3339 27.2507 83.2033 28.104C82.0939 28.936 80.7073 29.352 79.0433 29.352C76.9953 29.352 75.3313 28.6267 74.0513 27.176C72.7713 25.704 72.1313 23.752 72.1313 21.32C72.1313 18.888 72.7713 16.9467 74.0513 15.496C75.3526 14.0453 77.0699 13.32 79.2033 13.32C81.3579 13.32 82.9579 14.152 84.0033 15.816C85.0699 17.48 85.4433 19.5067 85.1233 21.896H74.6593C74.6593 23.4747 75.0433 24.776 75.8113 25.8C76.5793 26.8027 77.6566 27.304 79.0433 27.304ZM80.8993 15.72C80.4086 15.464 79.8113 15.336 79.1073 15.336C77.8059 15.336 76.7713 15.784 76.0033 16.68C75.2566 17.5547 74.8193 18.6533 74.6913 19.976H82.8513C82.8513 17.8427 82.2006 16.424 80.8993 15.72ZM100.289 16.648C101.292 14.4293 103.009 13.32 105.441 13.32C106.764 13.32 107.873 13.6507 108.769 14.312C109.665 14.952 110.316 15.848 110.721 17C111.681 14.5467 113.462 13.32 116.065 13.32C117.9 13.32 119.318 13.9173 120.321 15.112C121.324 16.3067 121.825 17.9387 121.825 20.008V29H119.329V20.008C119.329 18.536 118.977 17.4267 118.273 16.68C117.59 15.9333 116.598 15.56 115.297 15.56C113.996 15.56 112.982 16.0933 112.257 17.16C111.553 18.2267 111.201 19.6987 111.201 21.576V29H108.705V20.008C108.705 18.536 108.353 17.4267 107.649 16.68C106.966 15.9333 105.985 15.56 104.705 15.56C103.425 15.56 102.39 16.0827 101.601 17.128C100.812 18.1733 100.396 19.624 100.353 21.48V29H97.825V13.704H100.001L100.289 16.648ZM149.32 13.32C151.133 13.32 152.573 13.7893 153.64 14.728C154.707 15.6453 155.4 16.7973 155.72 18.184L153.16 18.408C152.883 17.512 152.435 16.8187 151.816 16.328C151.197 15.816 150.515 15.56 149.768 15.56C148.403 15.56 147.293 16.072 146.44 17.096C145.608 18.12 145.192 19.5173 145.192 21.288C145.192 23.0373 145.597 24.4453 146.408 25.512C147.24 26.5787 148.264 27.112 149.48 27.112C150.717 27.112 151.635 26.8347 152.232 26.28C152.851 25.704 153.16 24.8933 153.16 23.848H155.752C155.752 25.4907 155.176 26.824 154.024 27.848C152.893 28.8507 151.411 29.352 149.576 29.352C147.635 29.352 145.981 28.616 144.616 27.144C143.272 25.672 142.6 23.72 142.6 21.288C142.6 18.8347 143.272 16.8933 144.616 15.464C145.96 14.0347 147.528 13.32 149.32 13.32ZM170.173 19.08C170.173 17.6933 169.885 16.7013 169.309 16.104C168.733 15.5067 167.89 15.208 166.781 15.208C165.693 15.208 164.807 15.432 164.125 15.88C163.463 16.3067 163.133 16.9893 163.133 17.928H160.349C160.349 15.5813 161.607 14.1307 164.125 13.576C164.893 13.4053 165.725 13.32 166.621 13.32C168.519 13.32 170.002 13.8 171.069 14.76C172.135 15.72 172.669 17.1813 172.669 19.144V29H170.493L170.237 26.44C169.298 28.3813 167.602 29.352 165.149 29.352C163.506 29.352 162.183 28.8933 161.181 27.976C160.199 27.0587 159.709 25.9173 159.709 24.552C159.709 23.1867 160.253 22.12 161.341 21.352C162.45 20.584 163.826 20.2 165.469 20.2C167.111 20.2 168.679 20.4773 170.173 21.032V19.08ZM170.173 22.632C168.658 22.2053 167.335 21.992 166.205 21.992C165.074 21.992 164.157 22.1947 163.453 22.6C162.749 23.0053 162.397 23.6453 162.397 24.52C162.397 26.44 163.485 27.4 165.661 27.4C166.898 27.4 167.954 26.9627 168.829 26.088C169.725 25.192 170.173 24.04 170.173 22.632ZM178.767 13.672H181.295V29H178.767V13.672ZM180.015 10.088C179.503 10.088 179.098 9.94933 178.799 9.672C178.522 9.37333 178.383 8.98933 178.383 8.52C178.383 8.02933 178.522 7.64533 178.799 7.368C179.098 7.06933 179.503 6.92 180.015 6.92C180.527 6.92 180.932 7.06933 181.231 7.368C181.551 7.64533 181.711 8.02933 181.711 8.52C181.711 8.98933 181.551 9.37333 181.231 9.672C180.932 9.94933 180.527 10.088 180.015 10.088ZM190.602 16.648C191.604 14.4293 193.322 13.32 195.754 13.32C197.567 13.32 198.975 13.9173 199.978 15.112C201.002 16.3067 201.514 17.9387 201.514 20.008V29H199.018V20.008C199.018 18.536 198.666 17.4267 197.962 16.68C197.279 15.9333 196.298 15.56 195.018 15.56C193.738 15.56 192.703 16.0827 191.914 17.128C191.124 18.1733 190.708 19.624 190.666 21.48V29H188.138V13.704H190.314L190.602 16.648Z"
        fill="white" />
    <path
        d="M132.45 24.26C131.663 24.26 130.93 24.0533 130.25 23.64C129.57 23.22 129.023 22.63 128.61 21.87C128.197 21.1033 127.99 20.2067 127.99 19.18C127.99 18.1067 128.197 17.1933 128.61 16.44C129.023 15.6867 129.57 15.1133 130.25 14.72C130.93 14.32 131.663 14.12 132.45 14.12C133.223 14.12 133.883 14.2767 134.43 14.59C134.977 14.9033 135.413 15.31 135.74 15.81C136.067 16.3033 136.283 16.8267 136.39 17.38L134.46 17.48C134.313 16.9867 134.067 16.5867 133.72 16.28C133.373 15.9733 132.943 15.82 132.43 15.82C131.997 15.82 131.587 15.9433 131.2 16.19C130.82 16.43 130.51 16.8 130.27 17.3C130.037 17.7933 129.92 18.42 129.92 19.18C129.92 20.24 130.16 21.0667 130.64 21.66C131.12 22.2467 131.717 22.54 132.43 22.54C133.11 22.54 133.617 22.3767 133.95 22.05C134.29 21.7167 134.46 21.26 134.46 20.68H136.39C136.39 21.3533 136.233 21.96 135.92 22.5C135.607 23.04 135.153 23.47 134.56 23.79C133.973 24.1033 133.27 24.26 132.45 24.26Z"
        fill="white" />
    <circle cx="132.5" cy="29" r="2" fill="#EAA300" />
</svg>