<svg width="18" height="18" fill="none" xmlns="http://www.w3.org/2000/svg">
    <path
        d="M7.4 8.05a2.13 2.13 0 01.25-.725c.117-.208.283-.383.492-.517.2-.125.45-.183.758-.191.192.008.367.041.525.108.167.075.317.175.433.3.117.125.209.275.284.442.075.166.108.35.116.533h1.492a2.983 2.983 0 00-.233-1.075 2.5 2.5 0 00-.584-.842 2.722 2.722 0 00-.9-.55 3.219 3.219 0 00-1.158-.191c-.542 0-1.017.091-1.417.283-.4.192-.733.442-1 .767-.266.325-.466.7-.591 1.133a4.88 4.88 0 00-.2 1.367v.225c0 .483.066.933.191 1.366.125.434.325.809.592 1.125.267.317.6.575 1 .759.4.183.875.283 1.417.283.391 0 .758-.067 1.1-.192.341-.125.641-.3.9-.525.258-.225.466-.483.616-.783.15-.3.242-.617.25-.958h-1.491c-.009.175-.05.333-.125.483-.075.15-.175.275-.3.383a1.314 1.314 0 01-.434.25 1.655 1.655 0 01-.5.084c-.3-.009-.55-.067-.741-.192a1.458 1.458 0 01-.492-.517 2.179 2.179 0 01-.25-.733 5.618 5.618 0 01-.067-.833v-.225c0-.292.025-.567.067-.842zM9 .667A8.336 8.336 0 00.667 9c0 4.6 3.733 8.333 8.333 8.333S17.333 13.6 17.333 9 13.6.667 9 .667zm0 15A6.676 6.676 0 012.333 9 6.676 6.676 0 019 2.333 6.675 6.675 0 0115.667 9 6.675 6.675 0 019 15.667z"
        fill="#242424" /></svg>