<svg width="21" height="21" viewBox="0 0 21 21" fill="none" xmlns="http://www.w3.org/2000/svg">
    <path
        d="M19.3207 0.833313H1.67908C1.19575 0.833313 0.833252 1.19581 0.833252 1.67915V19.4416C0.833252 19.8041 1.19575 20.1666 1.67908 20.1666H19.4416C19.9249 20.1666 20.2874 19.8041 20.2874 19.3208V1.67915C20.1666 1.19581 19.8041 0.833313 19.3207 0.833313ZM6.51242 17.2666H3.73325V8.08331H6.63325V17.2666H6.51242ZM5.18325 6.87498C4.21658 6.87498 3.49158 6.02915 3.49158 5.18331C3.49158 4.21665 4.21658 3.49165 5.18325 3.49165C6.14992 3.49165 6.87492 4.21665 6.87492 5.18331C6.75408 6.02915 6.02908 6.87498 5.18325 6.87498ZM17.2666 17.2666H14.3666V12.7958C14.3666 11.7083 14.3666 10.3791 12.9166 10.3791C11.4666 10.3791 11.2249 11.5875 11.2249 12.7958V17.3875H8.32492V8.08331H11.1041V9.29165C11.4666 8.56665 12.4332 7.84165 13.7624 7.84165C16.6624 7.84165 17.1458 9.77498 17.1458 12.1916V17.2666H17.2666Z"
        fill="#242424" />
</svg>